<svg xmlns="http://www.w3.org/2000/svg" width="24.001" height="24" viewBox="0 0 24.001 24"><defs><style>.a,.b{fill:#205072;}.b{fill-rule:evenodd;}</style></defs><path class="a" d="M38.13,43.17a12,12,0,1,1,12-12A12.015,12.015,0,0,1,38.13,43.17Zm0-22.857A10.857,10.857,0,1,0,48.988,31.17,10.87,10.87,0,0,0,38.13,20.313Z" transform="translate(-26.13 -19.17)"/><path class="b" d="M56.028,41.914c.477-.015.951,0,1.428,0h.2V39.343c-.255-.026-.521-.064-.787-.079-.488-.023-.976-.049-1.465-.038a3.506,3.506,0,0,0-2.07.662,3.234,3.234,0,0,0-1.242,2.144,7.955,7.955,0,0,0-.087,1.1c-.015.575,0,1.153,0,1.732v.216H49.63v2.87h2.354v7.214h2.882v-7.2h2.346c.12-.953.237-1.9.361-2.881h-.528c-.667,0-2.2,0-2.2,0s.007-1.422.022-2.038A1.042,1.042,0,0,1,56.028,41.914Z" transform="translate(-41.772 -35.436)"/></svg>