<svg xmlns="http://www.w3.org/2000/svg" width="165.856" height="44" viewBox="0 0 165.856 44"><defs><style>.a{fill:#78bcfd;}.b{fill:#178cfc;}.c{fill:#fc1719;}.d{fill:#fff;}</style></defs><g transform="translate(-329.27 -211.7)"><g transform="translate(386.511 218.005)"><path d="M777.78,264.346a3.408,3.408,0,1,1,3.4,3.245A3.249,3.249,0,0,1,777.78,264.346Zm.595,5.859h5.542v21.929h-5.542Z" transform="translate(-777.78 -261.1)"/><path d="M868.66,274.75H874.2v29.291H868.66Z" transform="translate(-857.061 -273.008)"/><path d="M954.724,352.291c-6.372,0-11-4.434-11-11.32,0-6.927,4.513-11.32,11-11.32,6.333,0,10.806,4.315,10.806,10.846a12.965,12.965,0,0,1-.158,2.138H949.341a5.131,5.131,0,0,0,5.265,5.067A4.519,4.519,0,0,0,959,345.048h5.977C963.788,349.085,960.147,352.291,954.724,352.291Zm-5.344-13.379h10.41c-.079-2.889-2.375-4.711-5.225-4.711A5.093,5.093,0,0,0,949.38,338.912Z" transform="translate(-922.542 -320.901)"/><path d="M1146.084,352.291c-6.372,0-11-4.434-11-11.32,0-6.927,4.513-11.32,11-11.32,6.333,0,10.806,4.315,10.806,10.846a12.952,12.952,0,0,1-.158,2.138H1140.7a5.131,5.131,0,0,0,5.264,5.067,4.52,4.52,0,0,0,4.394-2.652h5.977C1155.148,349.085,1151.507,352.291,1146.084,352.291Zm-5.344-13.379h10.41c-.079-2.889-2.375-4.711-5.225-4.711A5.092,5.092,0,0,0,1140.74,338.912Z" transform="translate(-1089.48 -320.901)"/><path d="M1343.141,352.205H1337.6V330.277h5.541v3.4a7.606,7.606,0,0,1,6.73-3.72v5.818h-1.465c-3.285,0-5.265,1.266-5.265,5.5Z" transform="translate(-1266.153 -321.172)"/><path d="M1463.162,352.291c-6.333,0-11.122-4.434-11.122-11.32,0-6.927,4.948-11.32,11.281-11.32s11.281,4.394,11.281,11.32C1474.6,347.857,1469.536,352.291,1463.162,352.291Zm0-4.829c2.929,0,5.739-2.138,5.739-6.491,0-4.394-2.731-6.492-5.66-6.492s-5.581,2.1-5.581,6.492C1457.66,345.325,1460.194,347.461,1463.162,347.461Z" transform="translate(-1365.987 -320.901)"/></g><g transform="translate(329.27 211.7)"><path class="a" d="M423.166,211.7H398.1a6.9,6.9,0,0,0-6.084,3.674c.142-.009.285-.015.429-.015H417.51a6.906,6.906,0,0,1,6.885,6.885v25.062a6.822,6.822,0,0,1-.8,3.211,6.907,6.907,0,0,0,6.456-6.87V218.585A6.906,6.906,0,0,0,423.166,211.7Z" transform="translate(-384.011 -211.7)"/><path class="b" d="M361.217,252.19H336.155a6.906,6.906,0,0,0-6.885,6.885v25.062a6.906,6.906,0,0,0,6.885,6.885h9.765V271.681h5.541v19.34h9.756a6.906,6.906,0,0,0,6.885-6.885V259.074A6.906,6.906,0,0,0,361.217,252.19Zm-12.488,16.878a3.249,3.249,0,1,1,3.4-3.246A3.249,3.249,0,0,1,348.729,269.068Z" transform="translate(-329.27 -247.022)"/></g><g transform="translate(463.6 214.903)"><rect class="c" width="31.526" height="9.387" transform="translate(0 0)"/><g transform="translate(1.785 0.832)"><path class="d" d="M1398.351,249.88c1.637,0,2.454.944,2.454,2.084a1.962,1.962,0,0,1-1.548,1.956l1.626,2.755h-1.578l-1.5-2.648h-.643v2.648H1395.8v-6.8Zm-.05,1.129h-1.14v2h1.14c.76,0,1.1-.4,1.1-1.012S1399.061,251.009,1398.3,251.009Z" transform="translate(-1395.8 -249.043)"/><path class="d" d="M1444.667,265.75a2.786,2.786,0,0,1,0-5.57,2.533,2.533,0,0,1,2.658,2.667,3.139,3.139,0,0,1-.04.526h-3.943a1.263,1.263,0,0,0,1.3,1.247,1.111,1.111,0,0,0,1.081-.652h1.47A2.508,2.508,0,0,1,1444.667,265.75Zm-1.314-3.29h2.561a1.2,1.2,0,0,0-1.285-1.159A1.252,1.252,0,0,0,1443.353,262.459Z" transform="translate(-1436.069 -258.028)"/><path class="d" d="M1499.325,262.753a1.206,1.206,0,1,0-2.4,0v2.98h-1.363v-2.98a1.211,1.211,0,1,0-2.415,0v2.98h-1.363v-5.395h1.363v.652a1.964,1.964,0,0,1,1.588-.73,2.065,2.065,0,0,1,1.9,1.033,2.136,2.136,0,0,1,1.85-1.033,2.1,2.1,0,0,1,2.211,2.307v3.165h-1.363v-2.98Z" transform="translate(-1479.531 -258.098)"/><path class="d" d="M1570.59,244.119a.838.838,0,1,1,.837.8A.8.8,0,0,1,1570.59,244.119Zm.145,1.441h1.363v5.395h-1.363Z" transform="translate(-1548.283 -243.32)"/><path class="d" d="M1590.223,252.873h-.643v-1.119h.643V250.42h1.374v1.334h1.207v1.119H1591.6v2.61c0,.36.145.516.574.516h.633v1.149h-.856c-1.032,0-1.723-.438-1.723-1.674v-2.6Z" transform="translate(-1564.849 -249.514)"/></g></g></g></svg>